<svg width="169" height="58" viewBox="0 0 169 58" fill="none" xmlns="http://www.w3.org/2000/svg" class="cls-fusion5-logo-tag type-regular" id="cls-fusion5-logo-tag-8c60c40a-f95a-4f4f-b8d4-dfbbf697035c" role="button"><g clip-path="url(#clip0_5763_1658)"><path d="M75.9279 50.9183C76.2889 50.558 76.2889 49.9248 75.9279 49.5749C75.5668 49.2146 74.9321 49.2146 74.571 49.5749C74.21 49.9248 74.21 50.558 74.571 50.9183C74.9321 51.279 75.5668 51.279 75.9279 50.9183Z" fill="#FF5C39"></path><path d="M4.06885 51.3108H6.38696V57.8468H8.03479V51.3108H10.3531V49.7422H4.06885V51.3108Z" fill="#FF5C39"></path><path d="M12.4744 52.6724V51.8718H10.9912V57.8484H12.5402V55.0081C12.5402 53.7688 13.1224 53.1986 14.0016 53.1986C14.2214 53.1986 14.463 53.2425 14.7157 53.3195L14.8474 51.839C14.6058 51.7512 14.364 51.707 14.1224 51.707C13.386 51.707 12.837 52.0252 12.4744 52.6724Z" fill="#FF5C39"></path><path d="M20.1765 52.5811C19.649 51.9999 19.0119 51.7148 18.2649 51.7148C17.4188 51.7148 16.7047 52.0107 16.1446 52.6029C15.5842 53.1841 15.2983 53.9297 15.2983 54.8291C15.2983 55.7285 15.5733 56.4855 16.1332 57.0885C16.6936 57.6914 17.4077 57.9875 18.2649 57.9875C19.0228 57.9875 19.6602 57.7135 20.1765 57.1541V57.8449H21.6483V51.8683H20.1765V52.5811ZM19.7151 56.0792C19.3963 56.4192 19.001 56.5837 18.5176 56.5837C18.0342 56.5837 17.6386 56.4192 17.3201 56.0792C17.0015 55.7392 16.8478 55.3333 16.8478 54.8509C16.8478 54.3799 17.0015 53.9739 17.3087 53.6339C17.6275 53.2936 18.0233 53.1292 18.5176 53.1292C19.001 53.1292 19.3963 53.2936 19.7151 53.6339C20.0337 53.9739 20.1983 54.3799 20.1983 54.8509C20.1983 55.3333 20.0337 55.7392 19.7151 56.0792Z" fill="#FF5C39"></path><path d="M26.4397 51.707C25.5939 51.707 24.8798 52.1237 24.561 52.7052V51.8718H23.0449V57.8484H24.5939V54.6464C24.5939 53.758 25.1434 53.1327 25.9674 53.1327C26.7251 53.1327 27.2308 53.6592 27.2308 54.6132V57.8484H28.7798V54.1968C28.7798 53.3959 28.5491 52.7819 28.0986 52.3542C27.6481 51.9264 27.0877 51.707 26.4397 51.707Z" fill="#FF5C39"></path><path d="M33.2632 54.567C33.0982 54.4793 32.6149 54.2823 31.8238 53.9859C31.4726 53.8653 31.2966 53.6897 31.2966 53.4378C31.2966 53.1635 31.5712 52.933 31.9778 52.933C32.4722 52.933 32.9336 53.1304 33.3512 53.5253L34.12 52.5271C33.5707 51.9572 32.8675 51.6719 32.0217 51.6719C31.3514 51.6719 30.8023 51.8366 30.3957 52.1766C29.9894 52.5166 29.7805 52.9441 29.7805 53.4703C29.7805 54.1721 30.1211 54.6879 30.8133 55.0169C30.9451 55.0828 31.1977 55.1921 31.5821 55.3345C31.9669 55.4775 32.1976 55.5652 32.2966 55.6091C32.582 55.7404 32.7248 55.916 32.7248 56.1246C32.7248 56.4643 32.3732 56.7055 31.9008 56.7055C31.2966 56.7055 30.6706 56.3879 30.242 55.8721L29.418 56.8485C30.0222 57.6159 30.8462 57.9995 31.8899 57.9995C32.6039 57.9995 33.1862 57.8243 33.6149 57.4619C34.0543 57.1001 34.2737 56.6395 34.2737 56.0804C34.2737 55.4228 33.9331 54.9181 33.2632 54.567Z" fill="#FF5C39"></path><path d="M37.4171 51.6622C37.4171 50.9935 37.8126 50.6204 38.5266 50.6204C38.8015 50.6204 39.1198 50.7082 39.4933 50.873L39.9988 49.6882C39.4495 49.3924 38.8782 49.25 38.2958 49.25C37.5818 49.25 36.9886 49.4581 36.5381 49.864C36.0876 50.2694 35.8683 50.8616 35.8683 51.6297V51.8708H34.9453V53.1648H35.8683V57.8474H37.4171V53.1648H39.274V51.8708H37.4171V51.6622Z" fill="#FF5C39"></path><path d="M42.5373 51.707C41.6034 51.707 40.8343 52.0142 40.2301 52.6282C39.6259 53.2315 39.3291 53.9774 39.3291 54.8544C39.3291 55.7428 39.6259 56.489 40.2301 57.092C40.8343 57.695 41.6034 58.0018 42.5373 58.0018C43.4712 58.0018 44.24 57.695 44.844 57.092C45.4487 56.489 45.745 55.7428 45.745 54.8544C45.745 53.9774 45.4487 53.2315 44.844 52.6282C44.24 52.0142 43.4712 51.707 42.5373 51.707ZM43.7128 56.072C43.394 56.4007 43.0098 56.5654 42.5373 56.5654C42.0648 56.5654 41.6692 56.4007 41.3509 56.072C41.0321 55.732 40.8781 55.3263 40.8781 54.8544C40.8781 54.3834 41.0321 53.9774 41.3509 53.6482C41.6692 53.3195 42.0648 53.1548 42.5373 53.1548C43.0098 53.1548 43.394 53.3195 43.7128 53.6482C44.0311 53.9774 44.1962 54.3834 44.1962 54.8544C44.1962 55.3263 44.0311 55.732 43.7128 56.072Z" fill="#FF5C39"></path><path d="M48.0975 52.6724V51.8718H46.6143V57.8484H48.1633V55.0081C48.1633 53.7688 48.7455 53.1986 49.6246 53.1986C49.8444 53.1986 50.086 53.2425 50.3387 53.3195L50.4705 51.839C50.2287 51.7512 49.9871 51.707 49.7454 51.707C49.0091 51.707 48.46 52.0252 48.0975 52.6724Z" fill="#FF5C39"></path><path d="M58.4797 51.7033C57.5897 51.7033 56.7767 52.0982 56.3375 52.7564C56.0189 52.0651 55.3266 51.7033 54.5794 51.7033C53.7996 51.6929 53.0964 52.0982 52.7558 52.7233V51.8681H51.2397V57.8447H52.7887V54.5767C52.7887 53.6884 53.3381 53.129 54.096 53.129C54.8323 53.129 55.3048 53.6445 55.3048 54.5325V57.8447H56.8538V54.5656C56.8538 53.6884 57.3918 53.129 58.172 53.129C58.8861 53.129 59.3693 53.6116 59.3693 54.5221V57.8447H60.9187V54.2367C60.9187 53.4364 60.688 52.8221 60.2266 52.3723C59.7761 51.9227 59.1938 51.7033 58.4797 51.7033Z" fill="#FF5C39"></path><path d="M66.8091 52.5811C66.2817 51.9999 65.6446 51.7148 64.8977 51.7148C64.0515 51.7148 63.3375 52.0107 62.7774 52.6029C62.217 53.1841 61.9312 53.9297 61.9312 54.8291C61.9312 55.7285 62.2061 56.4855 62.7661 57.0885C63.3264 57.6914 64.0405 57.9875 64.8977 57.9875C65.6556 57.9875 66.293 57.7135 66.8091 57.1541V57.8449H68.2811V51.8683H66.8091V52.5811ZM66.3477 56.0792C66.0291 56.4192 65.6336 56.5837 65.1503 56.5837C64.667 56.5837 64.2712 56.4192 63.9529 56.0792C63.6341 55.7392 63.4806 55.3333 63.4806 54.8509C63.4806 54.3799 63.6341 53.9739 63.9416 53.6339C64.2603 53.2936 64.6561 53.1292 65.1503 53.1292C65.6336 53.1292 66.0291 53.2936 66.3477 53.6339C66.6665 53.9739 66.8311 54.3799 66.8311 54.8509C66.8311 55.3333 66.6665 55.7392 66.3477 56.0792Z" fill="#FF5C39"></path><path d="M72.5454 56.586C71.9853 56.586 71.6995 56.235 71.6995 55.5332V53.1646H73.6771V51.8706H71.6995V49.7539H70.1615V51.8706H69.1729V53.1646H70.1505V55.632C70.1505 57.1782 70.8646 57.9898 72.238 57.9898C72.9301 57.9898 73.5124 57.8254 74.0066 57.4964L73.5452 56.2788C73.1828 56.4878 72.8422 56.586 72.5454 56.586Z" fill="#FF5C39"></path><path d="M76.3146 51.8711H74.7656V57.8477H76.3146V51.8711Z" fill="#FF5C39"></path><path d="M80.589 51.707C79.6552 51.707 78.886 52.0142 78.2818 52.6282C77.6776 53.2315 77.3809 53.9774 77.3809 54.8544C77.3809 55.7428 77.6776 56.489 78.2818 57.092C78.886 57.695 79.6552 58.0018 80.589 58.0018C81.5229 58.0018 82.2917 57.695 82.8959 57.092C83.5001 56.489 83.7969 55.7428 83.7969 54.8544C83.7969 53.9774 83.5001 53.2315 82.8959 52.6282C82.2917 52.0142 81.5229 51.707 80.589 51.707ZM81.7645 56.072C81.4459 56.4007 81.0615 56.5654 80.589 56.5654C80.1167 56.5654 79.721 56.4007 79.4026 56.072C79.0839 55.732 78.9302 55.3263 78.9302 54.8544C78.9302 54.3834 79.0839 53.9774 79.4026 53.6482C79.721 53.3195 80.1167 53.1548 80.589 53.1548C81.0615 53.1548 81.4459 53.3195 81.7645 53.6482C82.0829 53.9774 82.2479 54.3834 82.2479 54.8544C82.2479 55.3263 82.0829 55.732 81.7645 56.072Z" fill="#FF5C39"></path><path d="M88.0612 51.707C87.2153 51.707 86.5013 52.1237 86.1826 52.7052V51.8718H84.6665V57.8484H86.2155V54.6464C86.2155 53.758 86.7649 53.1327 87.5888 53.1327C88.3467 53.1327 88.8524 53.6592 88.8524 54.6132V57.8484H90.4013V54.1968C90.4013 53.3959 90.1705 52.7819 89.72 52.3542C89.2695 51.9264 88.7092 51.707 88.0612 51.707Z" fill="#FF5C39"></path><path d="M97.642 49.7422H94.6431V57.8468H96.2691V55.0504H97.5212C98.5211 55.0504 99.268 54.7982 99.7623 54.3048C100.257 53.8003 100.51 53.1752 100.51 52.4185C100.51 51.6726 100.268 51.0368 99.7846 50.521C99.3122 50.0058 98.5978 49.7422 97.642 49.7422ZM97.5763 53.5809H96.2691V51.2448H97.6639C98.4003 51.2448 98.8508 51.7496 98.8508 52.3967C98.8508 53.0543 98.4112 53.5809 97.5763 53.5809Z" fill="#FF5C39"></path><path d="M105.806 52.5811C105.279 51.9999 104.642 51.7148 103.895 51.7148C103.049 51.7148 102.334 52.0107 101.774 52.6029C101.214 53.1841 100.928 53.9297 100.928 54.8291C100.928 55.7285 101.203 56.4855 101.763 57.0885C102.324 57.6914 103.038 57.9875 103.895 57.9875C104.653 57.9875 105.29 57.7135 105.806 57.1541V57.8449H107.278V51.8683H105.806V52.5811ZM105.345 56.0792C105.026 56.4192 104.631 56.5837 104.147 56.5837C103.664 56.5837 103.268 56.4192 102.95 56.0792C102.631 55.7392 102.478 55.3333 102.478 54.8509C102.478 54.3799 102.631 53.9739 102.939 53.6339C103.257 53.2936 103.653 53.1292 104.147 53.1292C104.631 53.1292 105.026 53.2936 105.345 53.6339C105.663 53.9739 105.828 54.3799 105.828 54.8509C105.828 55.3333 105.663 55.7392 105.345 56.0792Z" fill="#FF5C39"></path><path d="M110.158 52.6724V51.8718H108.675V57.8484H110.224V55.0081C110.224 53.7688 110.806 53.1986 111.685 53.1986C111.905 53.1986 112.147 53.2425 112.399 53.3195L112.531 51.839C112.289 51.7512 112.048 51.707 111.806 51.707C111.07 51.707 110.521 52.0252 110.158 52.6724Z" fill="#FF5C39"></path><path d="M116.388 56.586C115.828 56.586 115.542 56.235 115.542 55.5332V53.1646H117.519V51.8706H115.542V49.7539H114.004V51.8706H113.015V53.1646H113.993V55.632C113.993 57.1782 114.707 57.9898 116.08 57.9898C116.772 57.9898 117.355 57.8254 117.849 57.4964L117.387 56.2788C117.025 56.4878 116.684 56.586 116.388 56.586Z" fill="#FF5C39"></path><path d="M121.981 51.707C121.135 51.707 120.421 52.1237 120.102 52.7052V51.8718H118.586V57.8484H120.135V54.6464C120.135 53.758 120.684 53.1327 121.508 53.1327C122.266 53.1327 122.772 53.6592 122.772 54.6132V57.8484H124.321V54.1968C124.321 53.3959 124.09 52.7819 123.64 52.3542C123.189 51.9264 122.629 51.707 121.981 51.707Z" fill="#FF5C39"></path><path d="M128.244 51.7148C127.321 51.7148 126.574 52.0107 125.992 52.6029C125.409 53.1951 125.124 53.9411 125.124 54.8509C125.124 55.7174 125.398 56.4631 125.959 57.0667C126.519 57.6696 127.321 57.9765 128.376 57.9765C129.365 57.9765 130.232 57.7025 130.99 57.1541L130.375 56.0685C129.859 56.4192 129.09 56.6715 128.442 56.6715C127.497 56.6715 126.915 56.244 126.695 55.3993H131.188C131.221 55.1581 131.243 54.9279 131.243 54.7198C131.243 53.7871 130.957 53.0635 130.397 52.5259C129.837 51.9889 129.112 51.7148 128.244 51.7148ZM126.695 54.2479C126.881 53.4691 127.464 52.9978 128.244 52.9978C129.035 52.9978 129.595 53.4691 129.738 54.2479H126.695Z" fill="#FF5C39"></path><path d="M133.793 52.6724V51.8718H132.31V57.8484H133.859V55.0081C133.859 53.7688 134.441 53.1986 135.32 53.1986C135.54 53.1986 135.782 53.2425 136.034 53.3195L136.166 51.839C135.925 51.7512 135.683 51.707 135.441 51.707C134.705 51.707 134.156 52.0252 133.793 52.6724Z" fill="#FF5C39"></path><path d="M140.309 54.567C140.144 54.4793 139.66 54.2823 138.87 53.9859C138.518 53.8653 138.342 53.6897 138.342 53.4378C138.342 53.1635 138.617 52.933 139.023 52.933C139.518 52.933 139.979 53.1304 140.397 53.5253L141.165 52.5271C140.616 51.9572 139.913 51.6719 139.067 51.6719C138.397 51.6719 137.848 51.8366 137.441 52.1766C137.035 52.5166 136.826 52.9441 136.826 53.4703C136.826 54.1721 137.167 54.6879 137.859 55.0169C137.99 55.0828 138.243 55.1921 138.627 55.3345C139.012 55.4775 139.243 55.5652 139.342 55.6091C139.627 55.7404 139.77 55.916 139.77 56.1246C139.77 56.4643 139.419 56.7055 138.946 56.7055C138.342 56.7055 137.716 56.3879 137.287 55.8721L136.463 56.8485C137.068 57.6159 137.892 57.9995 138.935 57.9995C139.649 57.9995 140.232 57.8243 140.66 57.4619C141.1 57.1001 141.319 56.6395 141.319 56.0804C141.319 55.4228 140.979 54.9181 140.309 54.567Z" fill="#FF5C39"></path><path d="M39.342 29.1629C39.342 33.0059 37.0739 35.5323 33.2776 35.5323C29.5332 35.5323 27.2653 33.0059 27.2653 29.1629V12.5286H11.3906V11.3705C11.3906 8.00143 13.3414 6.15937 16.8751 6.15937C18.1407 6.15937 19.6696 6.52755 21.4627 7.31738L23.6252 1.94754C21.0936 0.631746 18.5098 0 15.9253 0C9.12297 0 4.53477 4.00086 4.53477 11.213V12.5286H0V18.3189H4.53477V41.1126H11.3906V18.3189H20.3572V29.1629C20.3572 37.1117 25.3142 41.7969 33.2776 41.7969C41.346 41.7969 46.25 37.1117 46.25 29.1629V12.5286H39.342V29.1629Z" fill="#FF5C39"></path><path d="M130.643 11.793C126.476 11.793 123.154 13.6353 121.625 16.5305V12.5299H114.875V41.1136H121.73V25.6902C121.73 21.2154 124.631 18.057 128.691 18.057C132.488 18.057 134.967 20.7943 134.967 25.5847V41.1136H141.875V23.6892C141.875 19.8464 140.768 16.9513 138.605 14.8988C136.444 12.8455 133.754 11.793 130.643 11.793Z" fill="#FF5C39"></path><path d="M165.483 28.1373C163.218 25.9733 160.319 24.876 156.865 24.876C155.262 24.876 153.74 25.1466 152.333 25.681L153.131 19.1049H166.629V12.5273H147.704L145.707 30.5149L149.926 33.7391L150.132 33.5336C151.725 31.9435 154.267 31.1702 156.535 31.1702C159.995 31.1702 162.506 33.4386 162.506 36.5636C162.506 39.8226 159.895 42.0988 156.155 42.0988C153.324 42.0988 149.87 41.0974 146.961 39.0374L146.646 38.8139L143.738 44.5662L143.965 44.7327C147.635 47.4184 151.498 48.724 155.775 48.724C159.683 48.724 162.901 47.5634 165.34 45.2744C167.769 42.9953 169 40.0644 169 36.5636C169 33.1091 167.85 30.3528 165.483 28.1373Z" fill="#FF5C39"></path><path d="M72.5866 15.5865L72.5854 15.5859V41.1124H79.4938V21.9923C78.594 20.8105 73.9069 16.3406 72.5866 15.5865Z" fill="#FF5C39"></path><path d="M58.8555 35.9733C56.0448 35.9733 53.0219 34.4381 51.1128 31.8968L47.1885 36.1319C49.893 39.8904 54.1357 41.8493 58.8025 41.8493C62.1434 41.8493 64.848 41.0022 66.9163 39.2552C68.9845 37.5085 69.9922 35.338 69.9922 32.7442C69.9922 29.6206 68.3481 27.1858 65.1132 25.4387C64.6359 25.174 62.3025 24.2212 58.166 22.5802C56.5222 21.9979 55.6735 21.045 55.6735 19.7742C55.6735 18.2391 57.0586 16.959 59.2327 16.9564C62.5188 16.9523 65.8795 18.0909 69.6743 20.8605V14.3312C66.8847 12.689 63.208 11.4102 59.3859 11.4102C56.2569 11.4102 53.7112 12.2043 51.8021 13.7924C49.893 15.3805 48.9385 17.4452 48.9385 19.9332C48.9385 23.2151 50.5294 25.6503 53.7642 27.2384C54.4007 27.556 55.6203 28.0855 57.4236 28.7736C59.2798 29.462 60.4462 29.9383 60.9238 30.203C62.3556 30.8911 63.098 31.844 63.098 32.9558C63.098 34.6499 61.3479 35.9733 58.8555 35.9733Z" fill="#FF5C39"></path><path d="M97.2621 11.7461C92.7727 11.7461 89.1284 13.2223 86.2234 16.1218C84.8121 17.557 83.7656 19.1538 83.0542 20.9055C83.0542 20.9055 88.8797 27.4183 88.877 27.3715C88.8139 26.2568 89.0029 24.9613 89.231 24.1776L89.2256 24.1668C89.606 22.8662 90.2894 21.691 91.2938 20.6559C92.9312 18.969 94.8854 18.1254 97.2621 18.1254C99.6388 18.1254 101.593 18.969 103.23 20.6559C104.868 22.3431 105.66 24.3993 105.66 26.772C105.66 29.197 104.868 31.2532 103.23 32.9404C101.593 34.6275 99.6388 35.4706 97.2621 35.4706C90.7356 35.4706 84.8849 27.3718 82.4108 24.3522L82.4102 33.2998C83.6052 34.9899 88.2312 41.8502 97.2621 41.8502C101.751 41.8502 105.396 40.4269 108.248 37.5271C111.153 34.6275 112.579 31.0422 112.579 26.772C112.579 22.5541 111.153 19.0216 108.248 16.1218C105.396 13.2223 101.751 11.7461 97.2621 11.7461Z" fill="#FF5C39"></path><path d="M76.0398 10.7729C78.457 10.7729 80.4165 8.81698 80.4165 6.4042C80.4165 3.99113 78.457 2.03516 76.0398 2.03516C73.6227 2.03516 71.6631 3.99113 71.6631 6.4042C71.6631 8.81698 73.6227 10.7729 76.0398 10.7729Z" fill="#FF5C39"></path></g><defs><clipPath id="clip0_5763_1658"><rect width="169" height="58" fill="white"></rect></clipPath></defs></svg>